<?xml version="1.0" standalone="no"?>
<!DOCTYPE svg PUBLIC "-//W3C//DTD SVG 20010904//EN"
 "http://www.w3.org/TR/2001/REC-SVG-20010904/DTD/svg10.dtd">
<svg version="1.0" xmlns="http://www.w3.org/2000/svg"
 width="295.000000pt" height="295.000000pt" viewBox="0 0 295.000000 295.000000"
 preserveAspectRatio="xMidYMid meet">
<metadata>
Created by potrace 1.11, written by Peter Selinger 2001-2013
</metadata>
<g transform="translate(0.000000,295.000000) scale(0.100000,-0.100000)"
fill="#000000" stroke="none">
<path d="M2300 2941 c0 -4 5 -12 10 -17 6 -6 12 -25 13 -42 1 -18 7 -32 14
-32 7 0 10 7 7 15 -5 11 -2 13 10 9 9 -3 16 -14 17 -23 0 -12 2 -12 9 4 4 11
6 29 3 41 -3 14 1 21 11 21 9 0 16 -4 16 -9 0 -4 -6 -8 -12 -8 -9 0 -8 -4 2
-10 22 -15 30 -12 40 13 8 17 9 14 5 -18 -2 -22 -2 -32 1 -23 5 16 7 16 21 3
14 -14 17 -14 33 0 9 8 20 12 25 8 4 -5 5 2 2 15 -3 12 -2 20 3 17 4 -2 11
-24 15 -47 6 -31 9 -37 12 -20 3 12 10 22 18 22 7 0 15 8 18 18 2 9 8 -3 13
-28 8 -34 14 -44 27 -42 9 2 17 -2 17 -8 0 -5 5 -10 11 -10 5 0 7 5 4 10 -3 6
-1 10 4 10 6 0 12 -6 12 -12 1 -7 3 -20 4 -28 1 -8 3 -25 4 -38 1 -18 4 -20
14 -11 7 7 12 22 12 33 0 12 4 21 9 21 9 0 15 -21 18 -62 1 -7 5 -10 10 -7 4
3 8 -1 8 -8 0 -9 3 -9 10 2 8 13 10 12 10 -2 0 -10 4 -18 9 -18 5 0 7 10 5 23
-2 12 1 8 8 -10 11 -27 16 -30 31 -21 22 12 26 9 29 -25 2 -20 5 -23 15 -15 7
6 13 18 14 27 0 10 4 6 10 -9 8 -20 12 -22 19 -10 5 8 5 17 0 20 -5 3 -5 12 0
20 7 11 10 12 10 2 0 -7 4 -11 9 -8 5 4 10 67 10 141 l2 135 -326 0 c-179 -1
-325 -5 -325 -9z m347 -113 c-3 -8 -6 -5 -6 6 -1 11 2 17 5 13 3 -3 4 -12 1
-19z"/>
<path d="M1786 2834 c-9 -8 -20 -13 -24 -10 -5 3 -28 -2 -53 -10 -36 -13 -59
-14 -130 -5 -92 10 -147 2 -240 -38 -55 -23 -83 -34 -89 -35 -3 -1 -18 -11
-35 -22 -32 -23 -62 -34 -102 -39 -14 -1 -31 -9 -38 -16 -22 -23 -46 -115 -44
-166 1 -26 -8 -109 -20 -183 -26 -169 -26 -190 -3 -190 13 0 17 9 18 43 3 68
14 134 34 200 17 54 29 71 87 124 37 35 74 63 81 63 8 0 26 9 41 20 15 10 36
19 47 19 10 1 55 3 99 5 136 7 277 -26 334 -77 13 -12 21 -15 17 -7 -5 9 -2 8
7 -2 8 -10 20 -18 26 -18 22 0 86 -38 115 -69 17 -17 26 -31 21 -31 -4 0 0 -9
10 -20 10 -11 13 -20 7 -20 -7 0 -12 -7 -12 -16 0 -11 6 -14 20 -9 24 8 34
-23 28 -90 -2 -25 0 -45 4 -45 5 0 8 -16 8 -35 0 -19 -4 -35 -9 -35 -5 0 -25
16 -44 35 -32 32 -41 36 -80 33 -25 -2 -43 -7 -39 -12 3 -5 -5 -6 -19 -2 -13
5 -51 10 -84 13 -51 4 -64 2 -87 -17 -16 -12 -28 -31 -28 -42 0 -19 -5 -20
-99 -16 -57 2 -105 9 -113 16 -8 6 -18 9 -21 5 -4 -3 -8 -1 -8 5 -1 7 -2 17
-3 22 -2 20 -28 27 -68 18 -22 -4 -45 -8 -51 -7 -35 4 -77 -2 -72 -11 3 -5 0
-10 -9 -10 -8 0 -16 5 -18 12 -3 7 -12 9 -22 5 -10 -4 -14 -12 -10 -18 4 -8 3
-9 -5 -5 -11 7 -57 -22 -94 -58 -8 -8 -17 -12 -21 -9 -6 6 -10 -12 -7 -30 1
-5 -3 -6 -9 -2 -5 3 -10 18 -10 32 0 38 -11 21 -21 -32 -10 -54 4 -97 45 -138
14 -14 26 -32 26 -40 0 -21 31 -44 77 -56 37 -10 215 -16 268 -9 23 3 63 61
89 128 26 68 44 90 70 90 29 0 40 -13 56 -65 7 -22 28 -77 46 -122 50 -120 46
-161 -11 -117 l-33 25 -39 -33 c-21 -18 -40 -33 -42 -35 -11 -7 24 -33 45 -33
12 0 25 -4 29 -10 6 -10 51 6 74 28 14 14 41 0 41 -22 0 -14 36 -46 51 -46 11
0 25 -13 49 -45 12 -17 10 -16 -11 3 -14 12 -29 22 -34 22 -5 0 -19 9 -31 21
-18 17 -26 19 -42 10 -16 -9 -21 -7 -27 7 -6 16 -7 16 -16 -1 -6 -10 -16 -14
-22 -10 -7 3 -3 -3 7 -15 11 -12 27 -22 38 -22 10 0 18 -4 18 -9 0 -5 9 -13
20 -16 35 -11 22 -24 -22 -23 -48 2 -127 -8 -135 -15 -9 -10 82 -24 94 -15 12
10 53 -10 53 -25 0 -4 -4 -6 -9 -3 -5 3 -11 -3 -14 -14 -5 -19 -3 -19 21 -6
15 7 39 19 54 26 14 7 30 22 33 34 l8 21 4 -22 c3 -13 9 -20 18 -17 9 4 15 -4
18 -23 3 -20 4 -16 6 15 1 50 -15 85 -57 126 -27 25 -30 33 -26 75 4 38 0 54
-19 82 l-23 34 125 0 c140 0 183 11 206 54 l14 26 1 -40 c1 -61 16 -77 29 -29
17 67 24 114 15 114 -4 0 -16 -8 -27 -17 -20 -17 -20 -17 -14 0 4 10 7 23 7
28 0 6 6 7 13 3 9 -5 9 -4 1 5 -8 9 -6 22 8 51 12 23 18 53 16 76 -2 31 -8 39
-28 44 -24 6 -25 9 -37 145 -7 77 -17 151 -23 164 -7 16 -9 56 -5 110 6 75 4
91 -14 125 -11 21 -18 43 -15 47 3 5 -12 9 -33 9 -21 0 -45 5 -53 10 -10 6
-11 10 -2 10 25 0 11 17 -32 38 -24 12 -52 22 -63 22 -29 0 -24 27 9 41 15 6
28 15 28 20 0 14 -17 11 -34 -7z m-41 -34 c-3 -5 -11 -10 -16 -10 -6 0 -7 5
-4 10 3 6 11 10 16 10 6 0 7 -4 4 -10z m-502 -702 c-17 -6 -34 -19 -36 -29 -6
-22 -6 -22 25 -10 27 10 80 -11 59 -23 -6 -4 -15 -4 -21 -1 -5 3 -10 1 -10 -4
0 -6 -8 -11 -18 -11 -20 0 -92 -46 -92 -60 0 -15 58 10 65 28 6 15 8 14 15 -5
7 -18 15 -21 46 -18 20 2 40 9 44 15 5 8 9 7 13 -3 4 -10 13 -13 26 -10 13 3
18 10 14 21 -4 10 -2 13 5 8 8 -5 10 -2 6 8 -4 9 -1 16 6 16 8 0 10 9 6 25 -4
15 -2 25 4 25 6 0 8 5 4 13 -5 7 2 5 16 -4 26 -17 38 -66 24 -97 -4 -10 -6
-23 -5 -31 1 -8 -2 -10 -10 -5 -9 5 -10 2 -6 -10 8 -19 -22 -85 -49 -107 -13
-10 -49 -14 -145 -14 -114 0 -131 2 -156 21 -35 26 -56 99 -49 173 8 87 26 98
171 98 68 1 75 -1 48 -9z m735 -20 c41 -12 52 -34 52 -98 0 -78 -18 -136 -48
-156 -34 -22 -207 -32 -269 -15 -42 12 -57 29 -82 94 -11 28 7 33 29 8 13 -13
12 -14 -3 -8 -11 4 -16 3 -12 -3 10 -16 65 -12 65 4 0 12 7 12 35 5 21 -6 42
-6 52 -1 10 5 24 7 30 5 7 -3 16 3 19 12 5 13 19 16 63 14 37 -1 55 2 54 9 -2
6 4 9 12 6 23 -9 45 15 45 47 0 32 -11 37 -30 14 -17 -20 -30 -3 -30 38 0 21
-5 27 -22 28 -13 0 -32 5 -43 10 -25 11 34 3 83 -13z m-351 -29 c2 -16 -1 -19
-9 -11 -5 5 -7 15 -4 21 10 15 12 14 13 -10z m156 7 c12 -9 14 -16 8 -21 -6
-3 -11 0 -11 7 0 9 -3 9 -10 -2 -8 -13 -10 -12 -10 3 0 11 -4 15 -12 11 -7 -4
-8 -3 -4 4 9 15 17 15 39 -2z m-53 -66 c0 -5 -4 -10 -10 -10 -5 0 -10 5 -10
10 0 6 5 10 10 10 6 0 10 -4 10 -10z m35 -30 c-17 -8 -16 -9 10 -11 26 -1 27
-2 6 -6 -29 -6 -71 4 -71 17 0 6 17 10 38 9 30 0 33 -2 17 -9z m75 -5 c0 -8
-7 -15 -16 -15 -14 0 -14 3 -4 15 7 8 14 15 16 15 2 0 4 -7 4 -15z m95 5 c19
-8 19 -9 -2 -9 -12 -1 -25 4 -28 9 -7 12 2 12 30 0z"/>
<path d="M1030 1996 c0 -13 7 -29 15 -36 25 -21 30 15 6 39 l-21 21 0 -24z"/>
<path d="M1322 1958 c2 -6 -17 -19 -42 -29 l-45 -18 35 0 c19 -1 47 7 62 17
26 17 26 18 7 30 -14 9 -18 9 -17 0z"/>
<path d="M2460 2840 c0 -5 5 -10 10 -10 6 0 10 5 10 10 0 6 -4 10 -10 10 -5 0
-10 -4 -10 -10z"/>
<path d="M2627 2783 c-4 -3 -7 -11 -7 -17 0 -6 5 -5 12 2 6 6 9 14 7 17 -3 3
-9 2 -12 -2z"/>
<path d="M930 1871 c0 -17 2 -31 4 -31 8 0 13 51 5 56 -5 3 -9 -9 -9 -25z"/>
<path d="M1993 1730 c-9 -59 -9 -60 11 -47 25 17 36 55 25 85 -14 37 -26 25
-36 -38z"/>
<path d="M1413 1685 c-3 -9 -3 -19 1 -22 7 -7 36 16 36 28 0 15 -30 10 -37 -6z"/>
<path d="M1241 1575 c-37 -43 -45 -71 -33 -116 l10 -34 1 42 c1 51 15 91 43
121 12 12 19 22 16 22 -3 0 -20 -16 -37 -35z"/>
<path d="M1974 1555 c0 -14 4 -25 8 -25 4 0 8 11 8 25 0 14 -4 25 -8 25 -4 0
-8 -11 -8 -25z"/>
<path d="M1265 1490 c-9 -14 -7 -16 26 -24 19 -4 29 -1 33 9 3 9 0 15 -8 15
-8 0 -21 3 -29 6 -8 3 -18 0 -22 -6z"/>
<path d="M1876 1458 c-9 -12 -16 -29 -16 -36 0 -8 -10 -35 -23 -61 -13 -25
-32 -64 -43 -86 -22 -45 -109 -137 -127 -133 -37 6 -124 -31 -109 -48 4 -4 0
-3 -9 4 -12 9 -18 9 -27 0 -9 -9 -15 -7 -27 8 -13 17 -14 17 -15 2 0 -10 -3
-18 -6 -18 -4 0 -13 8 -20 18 -13 16 -13 16 -14 -1 0 -20 -20 -19 -37 3 -9 11
-12 12 -13 2 0 -9 -5 -10 -18 -3 -13 7 -22 7 -30 -1 -8 -8 -13 -7 -18 5 -3 9
-10 14 -15 11 -5 -3 -9 1 -9 8 0 8 -10 15 -22 15 -13 1 -24 7 -26 12 -7 22
-39 54 -45 45 -7 -12 57 -82 111 -122 24 -17 67 -38 95 -47 29 -9 61 -20 72
-25 22 -10 64 -23 80 -25 6 -1 15 -3 22 -3 6 -1 10 -10 8 -19 -2 -10 -4 -24
-4 -30 -1 -7 -7 -13 -15 -13 -21 0 -31 -21 -15 -31 8 -5 10 -9 4 -9 -5 0 -3
-5 5 -10 11 -8 7 -9 -15 -4 -31 7 -116 65 -109 75 2 3 -3 6 -10 6 -8 0 -36 17
-64 39 -51 39 -66 59 -37 48 34 -13 12 6 -30 26 -74 36 -195 200 -195 264 l0
31 20 -32 c30 -49 32 -40 3 12 -13 25 -27 45 -29 45 -3 0 -10 -13 -17 -28 -22
-52 -162 -261 -175 -262 -34 -1 -137 -53 -184 -94 -29 -25 -56 -46 -61 -46
-19 0 -66 -31 -81 -54 -9 -15 -14 -26 -10 -26 4 0 1 -6 -5 -14 -10 -11 -10
-20 -1 -37 10 -17 10 -20 -2 -13 -11 6 -11 5 1 -9 7 -9 18 -14 25 -10 6 3 6 0
-1 -8 -15 -15 -18 -33 -5 -25 5 3 9 -1 9 -9 0 -10 -4 -12 -12 -5 -7 5 -15 7
-18 3 -11 -10 -8 -23 4 -20 6 1 14 -5 16 -13 4 -12 3 -12 -5 -2 -13 19 -25 17
-34 -8 -8 -21 -28 -19 -28 3 0 7 4 6 10 -3 14 -22 13 5 -1 32 -8 15 -8 18 0
14 7 -5 8 -1 4 9 -8 22 -23 -1 -16 -24 3 -11 1 -11 -7 2 -6 10 -9 25 -6 33 4
11 0 13 -19 8 -20 -5 -23 -3 -18 14 4 17 1 20 -16 15 -12 -3 -21 -9 -21 -13 0
-3 -30 -6 -68 -5 -82 3 -155 -18 -177 -51 -8 -13 -23 -24 -33 -24 -23 0 -64
-29 -57 -41 3 -5 0 -6 -7 -4 -10 4 -14 -2 -14 -19 0 -14 3 -23 7 -20 4 2 10 0
14 -6 3 -5 2 -10 -4 -10 -7 0 -7 -8 1 -25 6 -14 15 -25 20 -25 5 0 4 10 -2 22
-11 22 -10 22 4 4 13 -16 13 -22 3 -35 -10 -12 -9 -14 5 -8 13 4 15 2 11 -10
-4 -9 -2 -14 3 -11 5 4 10 -5 10 -18 2 -22 0 -23 -10 -9 -10 15 -12 14 -12 -8
0 -14 4 -23 8 -21 4 3 8 0 8 -5 0 -6 -7 -11 -15 -11 -8 0 -15 6 -15 14 0 7 -9
25 -20 38 -10 14 -17 28 -14 31 7 6 -46 48 -55 43 -4 -3 -7 4 -7 15 0 24 12
25 25 2 16 -28 13 2 -4 33 -10 20 -15 23 -15 12 0 -10 -4 -18 -10 -18 -6 0 -9
-94 -8 -244 1 -171 5 -243 12 -239 7 4 7 1 0 -8 -7 -8 -12 -40 -13 -72 l-1
-58 54 2 c51 2 56 4 72 35 10 18 20 31 22 29 3 -2 -3 -16 -12 -31 -10 -14 -14
-29 -10 -32 4 -4 9 -2 11 4 2 6 11 20 19 30 14 18 14 18 4 -4 -15 -30 -4 -41
15 -16 13 16 14 16 9 1 -6 -16 3 -17 114 -16 l121 1 4 26 4 27 2 -27 c1 -28 2
-28 70 -28 l70 0 4 38 4 37 1 -37 c2 -30 6 -38 21 -38 15 0 21 8 24 33 l4 32
1 -32 c2 -26 6 -33 22 -33 11 0 20 6 20 13 0 9 2 9 8 0 10 -16 152 -17 152 0
0 8 4 7 11 -3 7 -11 9 -3 5 30 l-5 45 11 -40 c13 -49 17 -53 28 -35 6 8 10 10
10 4 0 -16 282 -17 292 -1 6 9 8 9 8 0 0 -18 671 -17 682 0 5 8 8 7 8 -3 0
-13 1 -13 10 0 6 10 10 11 10 3 0 -10 94 -13 435 -13 239 0 435 3 435 8 0 4
-5 14 -10 22 -9 13 -10 13 -10 0 -1 -13 -36 93 -89 266 l-18 60 141 24 c78 12
147 25 154 27 13 5 17 43 5 43 -8 0 -232 -35 -284 -44 -26 -5 -28 -1 -53 77
-45 143 -121 219 -348 349 -116 66 -128 75 -126 99 1 14 -8 39 -20 55 -12 16
-49 65 -81 109 -43 58 -75 89 -115 114 -31 18 -56 36 -56 38 0 3 9 18 20 33
12 16 32 54 46 85 21 45 23 59 14 70 -11 13 -14 13 -25 -2 -17 -23 -30 -11
-16 16 16 28 -4 36 -23 9z m39 -58 c3 -6 -1 -7 -9 -4 -18 7 -21 14 -7 14 6 0
13 -4 16 -10z m-824 -193 c-10 -9 -11 -8 -5 6 3 10 9 15 12 12 3 -3 0 -11 -7
-18z m9 -27 c-6 -11 -13 -20 -16 -20 -2 0 0 9 6 20 6 11 13 20 16 20 2 0 0 -9
-6 -20z m-37 -25 c-3 -9 -8 -14 -10 -11 -3 3 -2 9 2 15 9 16 15 13 8 -4z m30
-30 c-3 -9 -8 -14 -10 -11 -3 3 -2 9 2 15 9 16 15 13 8 -4z m-73 -3 c0 -5 -7
-17 -15 -28 -14 -18 -14 -17 -4 9 12 27 19 34 19 19z m18 -17 c-6 -14 -13 -23
-15 -21 -5 5 15 46 22 46 3 0 -1 -11 -7 -25z m143 -12 c-12 -20 -14 -14 -5 12
4 9 9 14 11 11 3 -2 0 -13 -6 -23z m-110 2 c5 4 6 -1 2 -10 -5 -13 -7 -14 -14
-3 -5 7 -8 18 -8 23 0 6 3 4 6 -3 2 -6 9 -10 14 -7z m-162 -57 c-4 -24 -8 -49
-9 -55 0 -7 -4 -13 -9 -13 -10 0 -6 46 8 83 15 40 19 33 10 -15z m42 5 c-12
-20 -14 -14 -5 12 4 9 9 14 11 11 3 -2 0 -13 -6 -23z m30 4 c-10 -9 -11 -8 -5
6 3 10 9 15 12 12 3 -3 0 -11 -7 -18z m24 -7 c-9 -16 -18 -30 -21 -30 -2 0 2
14 11 30 9 17 18 30 21 30 2 0 -2 -13 -11 -30z m205 -1 c0 8 2 12 5 9 3 -3 2
-13 -1 -22 -5 -14 -9 -15 -15 -4 -5 7 -9 18 -9 23 0 6 5 3 10 -5 8 -12 10 -12
10 -1z m-264 -66 c-14 -26 -25 -45 -26 -41 0 12 43 98 48 94 2 -2 -8 -26 -22
-53z m86 43 c5 4 4 -4 -2 -17 -18 -34 -24 -38 -15 -10 5 16 4 21 -4 17 -7 -5
-8 -1 -4 10 4 11 8 13 11 6 2 -7 8 -9 14 -6z m131 -1 c-3 -9 -8 -14 -10 -11
-3 3 -2 9 2 15 9 16 15 13 8 -4z m-53 -5 c0 13 1 13 10 0 8 -12 10 -12 10 -1
0 8 3 12 6 8 3 -3 1 -14 -5 -24 -8 -14 -11 -15 -11 -3 0 9 -6 5 -15 -10 -9
-15 -14 -19 -15 -10 0 13 -1 13 -10 0 -9 -13 -10 -13 -10 0 -1 9 -6 5 -15 -10
-17 -30 -19 -21 -3 15 7 16 14 21 19 14 4 -8 9 -4 14 11 6 18 9 20 16 9 7 -12
9 -11 9 1z m-149 -57 c-11 -21 -20 -35 -21 -31 0 12 33 78 38 74 2 -2 -6 -21
-17 -43z m227 22 c-6 -14 -13 -23 -15 -21 -5 5 15 46 22 46 3 0 -1 -11 -7 -25z
m-282 -41 c-8 -21 -15 -31 -15 -22 -1 18 20 70 26 65 2 -2 -3 -21 -11 -43z
m75 13 c-10 -9 -11 -8 -5 6 3 10 9 15 12 12 3 -3 0 -11 -7 -18z m-231 10 c0
-2 -12 -14 -27 -28 l-28 -24 24 28 c23 25 31 32 31 24z m351 -34 c-12 -20 -14
-14 -5 12 4 9 9 14 11 11 3 -2 0 -13 -6 -23z m-321 14 c0 -2 -10 -12 -22 -23
l-23 -19 19 23 c18 21 26 27 26 19z m213 -12 c-3 -9 -8 -14 -10 -11 -3 3 -2 9
2 15 9 16 15 13 8 -4z m38 0 c5 4 6 -1 2 -10 -5 -13 -7 -14 -14 -3 -7 11 -9
10 -9 -1 0 -8 -2 -12 -5 -9 -3 3 -2 13 2 24 4 11 8 13 11 6 2 -7 8 -10 13 -7z
m190 -22 c-12 -20 -14 -14 -5 12 4 9 9 14 11 11 3 -2 0 -13 -6 -23z m39 -8 c0
-5 -5 -3 -10 5 -5 8 -10 20 -10 25 0 6 5 3 10 -5 5 -8 10 -19 10 -25z m-149
-2 c-12 -20 -14 -14 -5 12 4 9 9 14 11 11 3 -2 0 -13 -6 -23z m-310 3 c-1 -3
-3 -5 -5 -3 -2 1 -14 -7 -27 -18 l-24 -20 24 28 c22 24 34 29 32 13z m59 1 c0
-2 -10 -12 -22 -23 l-23 -19 19 23 c18 21 26 27 26 19z m91 -24 c-12 -20 -14
-14 -5 12 4 9 9 14 11 11 3 -2 0 -13 -6 -23z m-47 -22 c-4 -19 -10 -28 -14
-21 -4 7 -2 22 4 35 14 31 18 26 10 -14z m113 17 c-3 -8 -6 -5 -6 6 -1 11 2
17 5 13 3 -3 4 -12 1 -19z m263 -23 c0 -5 -5 -3 -10 5 -5 8 -10 20 -10 25 0 6
5 3 10 -5 5 -8 10 -19 10 -25z m440 25 c0 -6 -6 -13 -14 -16 -7 -3 -12 -16
-10 -29 1 -14 -2 -27 -7 -31 -5 -3 -7 -9 -4 -14 3 -4 -2 -13 -10 -20 -13 -11
-17 -8 -28 19 -7 19 -18 31 -29 31 -10 0 -18 5 -18 10 0 6 0 13 -1 17 0 4 24
14 53 24 66 21 68 21 68 9z m-643 -22 c-3 -8 -6 -5 -6 6 -1 11 2 17 5 13 3 -3
4 -12 1 -19z m-90 -10 c-3 -8 -6 -5 -6 6 -1 11 2 17 5 13 3 -3 4 -12 1 -19z
m170 0 c-3 -8 -6 -5 -6 6 -1 11 2 17 5 13 3 -3 4 -12 1 -19z m-357 -42 c-1 -6
-8 2 -16 17 -13 25 -18 27 -32 15 -15 -12 -16 -11 -2 6 14 17 15 17 32 -4 10
-12 18 -27 18 -34z m117 32 c-3 -8 -6 -5 -6 6 -1 11 2 17 5 13 3 -3 4 -12 1
-19z m110 0 c-3 -8 -6 -5 -6 6 -1 11 2 17 5 13 3 -3 4 -12 1 -19z m243 -13 c0
-5 -5 -3 -10 5 -5 8 -10 20 -10 25 0 6 5 3 10 -5 5 -8 10 -19 10 -25z m-313
-7 c-3 -8 -6 -5 -6 6 -1 11 2 17 5 13 3 -3 4 -12 1 -19z m130 0 c-3 -8 -6 -5
-6 6 -1 11 2 17 5 13 3 -3 4 -12 1 -19z m20 0 c-3 -8 -6 -5 -6 6 -1 11 2 17 5
13 3 -3 4 -12 1 -19z m20 0 c-3 -8 -6 -5 -6 6 -1 11 2 17 5 13 3 -3 4 -12 1
-19z m-150 -10 c-3 -8 -6 -5 -6 6 -1 11 2 17 5 13 3 -3 4 -12 1 -19z m20 0
c-3 -8 -6 -5 -6 6 -1 11 2 17 5 13 3 -3 4 -12 1 -19z m1008 2 c10 -11 16 -20
13 -20 -3 0 -13 9 -23 20 -10 11 -16 20 -13 20 3 0 13 -9 23 -20z m-1100 -22
c-5 -26 -4 -30 5 -18 10 13 11 12 6 -3 -3 -10 -6 -24 -7 -30 0 -7 -4 -2 -10
11 -5 13 -6 35 -3 48 9 36 17 29 9 -8z m22 10 c-3 -8 -6 -5 -6 6 -1 11 2 17 5
13 3 -3 4 -12 1 -19z m471 -3 c-3 -3 -9 2 -12 12 -6 14 -5 15 5 6 7 -7 10 -15
7 -18z m-341 -7 c-3 -8 -6 -5 -6 6 -1 11 2 17 5 13 3 -3 4 -12 1 -19z m215 13
c3 9 6 8 11 -5 4 -10 3 -15 -3 -11 -6 3 -10 2 -10 -4 0 -14 -33 -6 -38 10 -3
11 -1 11 7 -1 9 -13 11 -12 11 5 0 15 2 17 9 6 7 -11 9 -11 13 0z m719 -8 c13
-16 12 -17 -3 -4 -17 13 -22 21 -14 21 2 0 10 -8 17 -17z m-847 -28 c5 -22 4
-26 -4 -15 -8 13 -10 12 -10 -4 0 -11 -2 -17 -5 -14 -3 3 -2 19 1 37 8 37 9
36 18 -4z m59 15 c3 -11 1 -18 -4 -14 -5 3 -9 -1 -9 -8 0 -9 -3 -9 -10 2 -5 8
-10 20 -10 25 0 6 5 3 10 -5 8 -13 10 -12 10 3 0 23 6 22 13 -3z m-216 -12
c-3 -8 -6 -5 -6 6 -1 11 2 17 5 13 3 -3 4 -12 1 -19z m994 5 c13 -16 12 -17
-3 -4 -17 13 -22 21 -14 21 2 0 10 -8 17 -17z m-954 -15 c-3 -8 -6 -5 -6 6 -1
11 2 17 5 13 3 -3 4 -12 1 -19z m74 -13 l9 20 -3 -20 c-1 -11 -6 -18 -11 -17
-5 2 -13 -2 -18 -10 -7 -9 -8 -8 -4 5 3 10 7 24 7 30 1 7 4 3 7 -8 l5 -20 8
20z m860 -2 c13 -16 12 -17 -3 -4 -17 13 -22 21 -14 21 2 0 10 -8 17 -17z
m-1715 -18 c-1 -14 -7 -30 -13 -36 -9 -9 -11 -7 -8 7 2 11 4 20 5 22 2 1 4 7
5 12 1 6 3 12 4 15 3 14 8 2 7 -20z m766 -21 c-14 -25 -41 -27 -35 -3 8 28 22
33 17 7 -3 -17 -1 -16 8 5 7 16 14 24 16 18 2 -6 -1 -18 -6 -27z m24 0 c-4 -9
-9 -15 -11 -12 -3 3 -3 13 1 22 4 9 9 15 11 12 3 -3 3 -13 -1 -22z m-122 1
c-4 -8 -1 -15 5 -15 6 0 11 5 11 12 0 6 2 9 5 6 7 -7 -5 -38 -15 -38 -11 0
-21 30 -14 41 9 14 14 10 8 -6z m-324 -36 c12 -23 20 -43 18 -45 -3 -2 -14 17
-26 41 -27 56 -20 60 8 4z m50 -3 c0 -12 -5 -7 -19 24 -11 24 -11 24 3 6 9
-11 16 -24 16 -30z m885 26 c-3 -3 -11 0 -18 7 -9 10 -8 11 6 5 10 -3 15 -9
12 -12z m-905 -36 c0 -12 -5 -7 -19 24 -11 24 -11 24 3 6 9 -11 16 -24 16 -30z
m38 19 c-3 -3 -9 2 -12 12 -6 14 -5 15 5 6 7 -7 10 -15 7 -18z m-400 -30 c-15
-28 -15 -28 -22 -10 -3 9 -2 13 4 10 6 -3 10 -2 10 4 0 5 -6 11 -12 14 -7 3
-3 4 9 4 18 -1 20 -4 11 -22z m29 -7 c-3 -8 -6 -5 -6 6 -1 11 2 17 5 13 3 -3
4 -12 1 -19z m70 0 c-3 -8 -6 -5 -6 6 -1 11 2 17 5 13 3 -3 4 -12 1 -19z m477
-68 c5 -17 4 -20 -2 -10 -5 8 -13 26 -16 40 -5 17 -4 20 2 10 5 -8 13 -26 16
-40z m1013 36 c0 -15 -21 -16 -34 -1 -4 4 -3 5 4 1 6 -3 14 -2 18 4 8 14 12
13 12 -4z m-1520 -18 c-3 -8 -6 -5 -6 6 -1 11 2 17 5 13 3 -3 4 -12 1 -19z
m-58 -43 c0 -5 -4 -3 -9 5 -5 8 -9 22 -9 30 0 16 17 -16 18 -35z m370 5 c0
-10 -3 -8 -9 5 -12 27 -12 43 0 25 5 -8 9 -22 9 -30z m180 -5 c0 -5 -4 -3 -9
5 -5 8 -9 22 -9 30 0 16 17 -16 18 -35z m-582 13 c-3 -8 -6 -5 -6 6 -1 11 2
17 5 13 3 -3 4 -12 1 -19z m1603 18 c0 -2 -8 -10 -17 -17 -16 -13 -17 -12 -4
4 13 16 21 21 21 13z m-1541 -56 c0 -9 -4 -8 -9 5 -5 11 -9 27 -9 35 0 9 4 8
9 -5 5 -11 9 -27 9 -35z m30 -21 c12 -55 4 -120 -10 -84 -11 29 -10 55 2 30 9
-20 5 31 -8 83 -3 12 -3 22 0 22 3 0 10 -23 16 -51z m38 29 c-3 -8 -6 -5 -6 6
-1 11 2 17 5 13 3 -3 4 -12 1 -19z m-90 -20 c-3 -8 -6 -5 -6 6 -1 11 2 17 5
13 3 -3 4 -12 1 -19z m70 -10 c-3 -7 -5 -2 -5 12 0 14 2 19 5 13 2 -7 2 -19 0
-25z m-78 -38 c0 -9 -4 -8 -9 5 -5 11 -9 27 -9 35 0 9 4 8 9 -5 5 -11 9 -27 9
-35z m728 28 c-3 -8 -6 -5 -6 6 -1 11 2 17 5 13 3 -3 4 -12 1 -19z m-690 -10
c-3 -8 -6 -5 -6 6 -1 11 2 17 5 13 3 -3 4 -12 1 -19z m70 -15 c-3 -10 -5 -4
-5 12 0 17 2 24 5 18 2 -7 2 -21 0 -30z m-79 -38 c0 -16 -2 -15 -8 5 -4 14 -8
34 -8 45 0 16 2 15 8 -5 4 -14 8 -34 8 -45z m659 43 c-3 -8 -6 -5 -6 6 -1 11
2 17 5 13 3 -3 4 -12 1 -19z m-600 -25 c-3 -10 -5 -4 -5 12 0 17 2 24 5 18 2
-7 2 -21 0 -30z m580 15 c-3 -8 -6 -5 -6 6 -1 11 2 17 5 13 3 -3 4 -12 1 -19z
m-530 -35 c-3 -10 -5 -2 -5 17 0 19 2 27 5 18 2 -10 2 -26 0 -35z m510 25 c-3
-8 -6 -5 -6 6 -1 11 2 17 5 13 3 -3 4 -12 1 -19z m-752 -13 c0 -14 -5 -21 -12
-18 -7 3 -13 9 -13 14 0 5 -8 9 -17 10 -16 0 -15 1 2 8 31 12 40 9 40 -14z
m872 -7 c-3 -8 -6 -5 -6 6 -1 11 2 17 5 13 3 -3 4 -12 1 -19z m-20 -10 c-3 -8
-6 -5 -6 6 -1 11 2 17 5 13 3 -3 4 -12 1 -19z m130 0 c-3 -8 -6 -5 -6 6 -1 11
2 17 5 13 3 -3 4 -12 1 -19z m-350 -10 c-3 -8 -6 -5 -6 6 -1 11 2 17 5 13 3
-3 4 -12 1 -19z m200 0 c-3 -8 -6 -5 -6 6 -1 11 2 17 5 13 3 -3 4 -12 1 -19z
m-720 -10 c-3 -8 -6 -5 -6 6 -1 11 2 17 5 13 3 -3 4 -12 1 -19z m70 -10 c-3
-7 -5 -2 -5 12 0 14 2 19 5 13 2 -7 2 -19 0 -25z m20 0 c-3 -7 -5 -2 -5 12 0
14 2 19 5 13 2 -7 2 -19 0 -25z m20 0 c-3 -7 -5 -2 -5 12 0 14 2 19 5 13 2 -7
2 -19 0 -25z m50 0 c-3 -7 -5 -2 -5 12 0 14 2 19 5 13 2 -7 2 -19 0 -25z m540
10 c-3 -8 -6 -5 -6 6 -1 11 2 17 5 13 3 -3 4 -12 1 -19z m-792 -15 c0 -16 -6
-27 -13 -25 -7 1 -12 -3 -12 -9 0 -5 -4 -8 -9 -5 -11 7 -11 56 1 56 5 0 6 -4
3 -10 -3 -5 -2 -10 3 -10 6 0 12 7 16 15 8 22 12 18 11 -12z m572 5 c-3 -8 -6
-5 -6 6 -1 11 2 17 5 13 3 -3 4 -12 1 -19z m-450 -20 c-3 -7 -5 -2 -5 12 0 14
2 19 5 13 2 -7 2 -19 0 -25z m850 10 c-3 -8 -6 -5 -6 6 -1 11 2 17 5 13 3 -3
4 -12 1 -19z m-740 -25 c-3 -10 -5 -4 -5 12 0 17 2 24 5 18 2 -7 2 -21 0 -30z
m1120 15 c-3 -8 -6 -5 -6 6 -1 11 2 17 5 13 3 -3 4 -12 1 -19z m-1516 -25
c-12 -20 -14 -14 -5 12 4 9 9 14 11 11 3 -2 0 -13 -6 -23z m353 -12 c-4 -17
-9 -30 -11 -27 -3 2 -2 19 2 36 4 17 9 30 11 27 2 -2 1 -18 -2 -36z m93 7 c-3
-7 -5 -2 -5 12 0 14 2 19 5 13 2 -7 2 -19 0 -25z m-282 -18 c-17 -34 -19 -44
-5 -35 6 4 7 -1 3 -12 -6 -16 -5 -17 12 -3 18 15 18 14 1 -12 -21 -32 -22 -32
-32 -16 -4 7 -3 8 4 4 16 -10 15 -1 -4 36 -10 20 -11 28 -3 22 9 -5 10 -2 6
10 -4 9 -3 15 2 12 5 -3 11 1 15 9 3 8 8 15 11 15 3 0 -1 -13 -10 -30z m132
-2 c-3 -7 -5 -2 -5 12 0 14 2 19 5 13 2 -7 2 -19 0 -25z m130 -45 c-2 -16 -4
-3 -4 27 0 30 2 43 4 28 2 -16 2 -40 0 -55z m1400 55 c-3 -8 -6 -5 -6 6 -1 11
2 17 5 13 3 -3 4 -12 1 -19z m-1821 -25 c-8 -15 -15 -25 -16 -21 0 12 23 58
27 54 3 -2 -2 -17 -11 -33z m361 -40 c-2 -16 -4 -5 -4 22 0 28 2 40 4 28 2
-13 2 -35 0 -50z m20 0 c-2 -16 -4 -5 -4 22 0 28 2 40 4 28 2 -13 2 -35 0 -50z
m20 0 c-2 -16 -4 -5 -4 22 0 28 2 40 4 28 2 -13 2 -35 0 -50z m-130 35 c-3 -8
-6 -5 -6 6 -1 11 2 17 5 13 3 -3 4 -12 1 -19z m200 -25 c-3 -10 -5 -2 -5 17 0
19 2 27 5 18 2 -10 2 -26 0 -35z m-461 0 c-8 -15 -15 -25 -16 -21 0 12 23 58
27 54 3 -2 -2 -17 -11 -33z m733 -3 c0 -10 -3 -8 -9 5 -12 27 -12 43 0 25 5
-8 9 -22 9 -30z m1068 18 c-3 -8 -6 -5 -6 6 -1 11 2 17 5 13 3 -3 4 -12 1 -19z
m-1510 -20 c-3 -7 -5 -2 -5 12 0 14 2 19 5 13 2 -7 2 -19 0 -25z m150 -45 c-2
-16 -4 -5 -4 22 0 28 2 40 4 28 2 -13 2 -35 0 -50z m-437 8 c-28 -56 -35 -52
-8 4 12 24 23 43 26 41 2 -2 -6 -22 -18 -45z m839 -1 c0 -9 -4 -8 -9 5 -5 11
-9 27 -9 35 0 9 4 8 9 -5 5 -11 9 -27 9 -35z m-808 13 c-12 -20 -14 -14 -5 12
4 9 9 14 11 11 3 -2 0 -13 -6 -23z m456 -20 c-3 -10 -5 -2 -5 17 0 19 2 27 5
18 2 -10 2 -26 0 -35z m270 25 c-3 -8 -6 -5 -6 6 -1 11 2 17 5 13 3 -3 4 -12
1 -19z m50 0 c-3 -8 -6 -5 -6 6 -1 11 2 17 5 13 3 -3 4 -12 1 -19z m-490 -25
c-3 -10 -5 -4 -5 12 0 17 2 24 5 18 2 -7 2 -21 0 -30z m-157 -3 c-6 -11 -13
-20 -16 -20 -2 0 0 9 6 20 6 11 13 20 16 20 2 0 0 -9 -6 -20z m727 -2 c-3 -8
-6 -5 -6 6 -1 11 2 17 5 13 3 -3 4 -12 1 -19z m-470 -20 c-3 -7 -5 -2 -5 12 0
14 2 19 5 13 2 -7 2 -19 0 -25z m400 10 c-3 -8 -6 -5 -6 6 -1 11 2 17 5 13 3
-3 4 -12 1 -19z m-812 -18 c-9 -16 -18 -30 -21 -30 -2 0 2 14 11 30 9 17 18
30 21 30 2 0 -2 -13 -11 -30z m41 -29 c-15 -28 -28 -51 -31 -51 -3 0 7 25 22
55 15 30 29 53 31 51 2 -2 -8 -27 -22 -55z m491 22 c-3 -10 -5 -4 -5 12 0 17
2 24 5 18 2 -7 2 -21 0 -30z m330 15 c-3 -8 -6 -5 -6 6 -1 11 2 17 5 13 3 -3
4 -12 1 -19z m-20 -10 c-3 -8 -6 -5 -6 6 -1 11 2 17 5 13 3 -3 4 -12 1 -19z
m160 0 c-3 -8 -6 -5 -6 6 -1 11 2 17 5 13 3 -3 4 -12 1 -19z m-947 -48 c-17
-33 -33 -60 -35 -60 -3 0 8 27 25 60 17 33 33 60 35 60 3 0 -8 -27 -25 -60z
m407 -2 c-2 -13 -4 -3 -4 22 0 25 2 35 4 23 2 -13 2 -33 0 -45z m20 40 c-3 -8
-6 -5 -6 6 -1 11 2 17 5 13 3 -3 4 -12 1 -19z m30 0 c-3 -8 -6 -5 -6 6 -1 11
2 17 5 13 3 -3 4 -12 1 -19z m380 -10 c-3 -7 -5 -2 -5 12 0 14 2 19 5 13 2 -7
2 -19 0 -25z m90 10 c-3 -8 -6 -5 -6 6 -1 11 2 17 5 13 3 -3 4 -12 1 -19z
m290 0 c-3 -8 -6 -5 -6 6 -1 11 2 17 5 13 3 -3 4 -12 1 -19z m-1256 -11 c-10
-9 -11 -8 -5 6 3 10 9 15 12 12 3 -3 0 -11 -7 -18z m326 -24 c-3 -10 -5 -2 -5
17 0 19 2 27 5 18 2 -10 2 -26 0 -35z m620 25 c-3 -8 -6 -5 -6 6 -1 11 2 17 5
13 3 -3 4 -12 1 -19z m110 0 c-3 -8 -6 -5 -6 6 -1 11 2 17 5 13 3 -3 4 -12 1
-19z m-899 -8 c-7 -10 -14 -17 -17 -15 -4 4 18 35 25 35 2 0 -1 -9 -8 -20z
m243 -3 c-10 -9 -11 -8 -5 6 3 10 9 15 12 12 3 -3 0 -11 -7 -18z m146 -74 c-2
-21 -4 -6 -4 32 0 39 2 55 4 38 2 -18 2 -50 0 -70z m310 75 c-3 -8 -6 -5 -6 6
-1 11 2 17 5 13 3 -3 4 -12 1 -19z m-786 -11 c-10 -9 -11 -8 -5 6 3 10 9 15
12 12 3 -3 0 -11 -7 -18z m306 1 c-3 -8 -6 -5 -6 6 -1 11 2 17 5 13 3 -3 4
-12 1 -19z m340 0 c-3 -8 -6 -5 -6 6 -1 11 2 17 5 13 3 -3 4 -12 1 -19z m120
0 c-3 -8 -6 -5 -6 6 -1 11 2 17 5 13 3 -3 4 -12 1 -19z m490 0 c-3 -8 -6 -5
-6 6 -1 11 2 17 5 13 3 -3 4 -12 1 -19z m-830 -66 c-2 -15 -4 -2 -4 28 0 30 2
43 4 27 2 -15 2 -39 0 -55z m480 56 c-3 -8 -6 -5 -6 6 -1 11 2 17 5 13 3 -3 4
-12 1 -19z m-670 -10 c-3 -8 -6 -5 -6 6 -1 11 2 17 5 13 3 -3 4 -12 1 -19z
m50 -10 c-3 -7 -5 -2 -5 12 0 14 2 19 5 13 2 -7 2 -19 0 -25z m390 10 c-3 -8
-6 -5 -6 6 -1 11 2 17 5 13 3 -3 4 -12 1 -19z m140 0 c-3 -8 -6 -5 -6 6 -1 11
2 17 5 13 3 -3 4 -12 1 -19z m-420 -10 c-3 -8 -6 -5 -6 6 -1 11 2 17 5 13 3
-3 4 -12 1 -19z m580 0 c-3 -8 -6 -5 -6 6 -1 11 2 17 5 13 3 -3 4 -12 1 -19z
m-977 -28 c-11 -22 -23 -40 -25 -40 -3 0 4 18 15 40 11 22 23 40 25 40 3 0 -4
-18 -15 -40z m657 18 c-3 -8 -6 -5 -6 6 -1 11 2 17 5 13 3 -3 4 -12 1 -19z
m210 0 c-3 -8 -6 -5 -6 6 -1 11 2 17 5 13 3 -3 4 -12 1 -19z m-530 -10 c-3 -8
-6 -5 -6 6 -1 11 2 17 5 13 3 -3 4 -12 1 -19z m-120 -10 c-3 -8 -6 -5 -6 6 -1
11 2 17 5 13 3 -3 4 -12 1 -19z m100 -15 c-3 -10 -5 -4 -5 12 0 17 2 24 5 18
2 -7 2 -21 0 -30z m370 15 c-3 -8 -6 -5 -6 6 -1 11 2 17 5 13 3 -3 4 -12 1
-19z m-290 -10 c-3 -8 -6 -5 -6 6 -1 11 2 17 5 13 3 -3 4 -12 1 -19z m500 -10
c-3 -7 -5 -2 -5 12 0 14 2 19 5 13 2 -7 2 -19 0 -25z m860 10 c-3 -8 -6 -5 -6
6 -1 11 2 17 5 13 3 -3 4 -12 1 -19z m-1797 -8 c-6 -11 -13 -20 -16 -20 -2 0
0 9 6 20 6 11 13 20 16 20 2 0 0 -9 -6 -20z m407 -2 c-3 -8 -6 -5 -6 6 -1 11
2 17 5 13 3 -3 4 -12 1 -19z m620 -10 c-3 -7 -5 -2 -5 12 0 14 2 19 5 13 2 -7
2 -19 0 -25z m-790 -10 c-3 -7 -5 -2 -5 12 0 14 2 19 5 13 2 -7 2 -19 0 -25z
m470 10 c-3 -8 -6 -5 -6 6 -1 11 2 17 5 13 3 -3 4 -12 1 -19z m300 0 c-3 -8
-6 -5 -6 6 -1 11 2 17 5 13 3 -3 4 -12 1 -19z m-270 -10 c-3 -8 -6 -5 -6 6 -1
11 2 17 5 13 3 -3 4 -12 1 -19z m50 0 c-3 -8 -6 -5 -6 6 -1 11 2 17 5 13 3 -3
4 -12 1 -19z m-500 -20 c-3 -8 -6 -5 -6 6 -1 11 2 17 5 13 3 -3 4 -12 1 -19z"/>
<path d="M1573 1418 c-6 -11 39 -9 57 2 11 7 6 9 -18 7 -19 -1 -36 -5 -39 -9z"/>
<path d="M1741 1277 c-13 -21 -12 -21 5 -5 10 10 16 20 13 22 -3 3 -11 -5 -18
-17z"/>
<path d="M1504 1248 c-10 -15 1 -19 26 -10 l24 9 -22 5 c-12 4 -25 2 -28 -4z"/>
<path d="M553 777 c-5 -6 -10 -23 -11 -37 -1 -25 3 -22 28 22 12 20 -3 34 -17
15z"/>
<path d="M2751 64 c0 -11 3 -14 6 -6 3 7 2 16 -1 19 -3 4 -6 -2 -5 -13z"/>
<path d="M2785 39 c-3 -4 1 -9 9 -12 8 -3 17 0 19 7 5 13 -21 18 -28 5z"/>
<path d="M2875 10 c-3 -5 -1 -10 4 -10 6 0 11 5 11 10 0 6 -2 10 -4 10 -3 0
-8 -4 -11 -10z"/>
</g>
</svg>
